<svg width="15" height="21" viewBox="0 0 15 21" fill="none" xmlns="http://www.w3.org/2000/svg">
<path d="M7.5 0.466675C3.63 0.466675 0.5 3.59667 0.5 7.46667C0.5 12.7167 7.5 20.4667 7.5 20.4667C7.5 20.4667 14.5 12.7167 14.5 7.46667C14.5 3.59667 11.37 0.466675 7.5 0.466675ZM7.5 9.96667C6.83696 9.96667 6.20107 9.70328 5.73223 9.23444C5.26339 8.7656 5 8.12972 5 7.46667C5 6.80363 5.26339 6.16775 5.73223 5.69891C6.20107 5.23007 6.83696 4.96667 7.5 4.96667C8.16304 4.96667 8.79893 5.23007 9.26777 5.69891C9.73661 6.16775 10 6.80363 10 7.46667C10 8.12972 9.73661 8.7656 9.26777 9.23444C8.79893 9.70328 8.16304 9.96667 7.5 9.96667Z" fill="#064EA4"/>
</svg>
