<svg width="19" height="13" viewBox="0 0 19 13" fill="none" xmlns="http://www.w3.org/2000/svg">
<path d="M0.5 0.466675H18.5V12.4667H0.5V0.466675ZM9.5 3.46667C10.2956 3.46667 11.0587 3.78274 11.6213 4.34535C12.1839 4.90796 12.5 5.67103 12.5 6.46667C12.5 7.26232 12.1839 8.02539 11.6213 8.588C11.0587 9.1506 10.2956 9.46667 9.5 9.46667C8.70435 9.46667 7.94129 9.1506 7.37868 8.588C6.81607 8.02539 6.5 7.26232 6.5 6.46667C6.5 5.67103 6.81607 4.90796 7.37868 4.34535C7.94129 3.78274 8.70435 3.46667 9.5 3.46667ZM4.5 2.46667C4.5 2.99711 4.28929 3.50582 3.91421 3.88089C3.53914 4.25596 3.03043 4.46667 2.5 4.46667V8.46667C3.03043 8.46667 3.53914 8.67739 3.91421 9.05246C4.28929 9.42753 4.5 9.93624 4.5 10.4667H14.5C14.5 9.93624 14.7107 9.42753 15.0858 9.05246C15.4609 8.67739 15.9696 8.46667 16.5 8.46667V4.46667C15.9696 4.46667 15.4609 4.25596 15.0858 3.88089C14.7107 3.50582 14.5 2.99711 14.5 2.46667H4.5Z" fill="#064EA4"/>
</svg>
